<?xml version="1.0" encoding="utf-8"?>
<!-- Generator: Adobe Illustrator 27.2.0, SVG Export Plug-In . SVG Version: 6.00 Build 0)  -->
<svg version="1.1" id="Max_Logo" xmlns="http://www.w3.org/2000/svg" xmlns:xlink="http://www.w3.org/1999/xlink" x="0px" y="0px"
	 viewBox="0 0 597.63 163.58" style="enable-background:new 0 0 597.63 163.58;" xml:space="preserve">
<style type="text/css">
	.st0{fill:#0033FF;}
</style>
<g id="Max_Logo_00000092453248999480540530000005317579666889849217_">
	<path id="x" class="st0" d="M411.79,159.44h51.51c12.16-19.67,25.88-37.53,41.67-54.35c15.53,16.82,28.47,34.68,40.63,54.35h52.02
		c-17.86-27.18-37.27-53.06-60.57-78.68c23.04-24.59,42.71-49.96,60.57-76.61h-50.99c-12.68,19.67-26.4,36.23-41.67,52.54
		c-15.53-16.31-29.25-32.87-41.67-52.54h-51.51c17.6,27.43,37.53,52.02,60.82,76.61C449.32,106.38,429.39,133.04,411.79,159.44"/>
	<path id="a" class="st0" d="M310.59,163.58c20.96,0,39.08-7.76,53.06-24.59v20.45h40.63V4.14h-40.63v20.45
		C349.67,7.77,331.55,0,310.59,0c-42.45,0-77.65,36.49-77.65,81.79C232.94,127.08,268.14,163.58,310.59,163.58 M271.25,81.79
		c0-25.36,20.45-45.81,45.81-45.81c25.36,0,45.81,20.45,45.81,45.81c0,25.37-20.45,45.81-45.81,45.81
		C291.69,127.6,271.25,107.15,271.25,81.79 M281.86,81.79c0,19.67,15.79,35.46,35.2,35.46c19.41,0,35.2-15.79,35.2-35.46
		c0-19.67-15.79-35.46-35.2-35.46C297.65,46.33,281.86,62.12,281.86,81.79"/>
	<path id="m" class="st0" d="M0,159.44h42.71V62.89c18.64-14.75,27.18-19.41,34.17-19.41c8.28,0,13.72,5.18,13.72,18.12v97.83h42.71
		v-96.8c18.64-14.49,26.92-19.15,34.17-19.15c8.28,0,13.72,5.18,13.72,18.12v97.83h42.71V46.59C223.88,11.65,203.95,0,184.8,0
		c-16.31,0-32.87,6.73-54.61,23.29C123.2,5.95,107.93,0,94.21,0C77.9,0,61.34,7.25,40.12,23.55V4.14H0V159.44z"/>
</g>
</svg>
