<svg xmlns="http://www.w3.org/2000/svg" viewBox="0 0 269 271"><g fill="none" fill-rule="evenodd"><path fill="#00AAE1" d="M244.748 56.905c-3.92 0-7.326-.376-10.211-1.136.408 4.63 1.807 7.95 4.18 9.95 2.372 2 5.962 3.005 10.776 3.005a42.34 42.34 0 005.623-.367c1.817-.235 4.345-.777 7.58-1.599.2-.07.406-.122.615-.157.21-.034.374-.053.513-.053 1.173 0 1.756.795 1.756 2.386v4.77c0 1.1-.157 1.877-.461 2.331-.312.445-.913.848-1.808 1.188-5.023 1.931-10.35 2.901-15.99 2.901-8.526 0-15.07-2.341-19.641-7.05-4.572-4.7-6.857-11.434-6.857-20.214 0-8.98 2.338-16.03 7.013-21.14 4.675-5.12 11.168-7.679 19.485-7.679 6.396 0 11.402 1.555 15.01 4.665 3.605 3.11 5.413 7.26 5.413 12.44 0 5.188-1.947 9.11-5.822 11.766-3.886 2.665-9.613 3.993-17.174 3.993zm1.442-22.39c-6.604 0-10.42 4.08-11.445 12.23 2.747.56 5.806.83 9.178.83 3.502 0 6.049-.532 7.63-1.608 1.582-1.065 2.372-2.707 2.372-4.917 0-4.36-2.58-6.535-7.735-6.535zM145.536 30.68c3.642-2.42 6.927-4.132 9.847-5.128a27.615 27.615 0 019.03-1.512c6.188 0 10.55 2.22 13.096 6.64 3.503-2.35 6.806-4.045 9.9-5.076a29.912 29.912 0 019.585-1.564c4.814 0 8.543 1.354 11.194 4.046 2.642 2.699 3.972 6.464 3.972 11.303v36.594c0 .9-.192 1.554-.565 1.965-.383.42-1.052.62-2.016.62h-9.9c-.894 0-1.546-.2-1.955-.62-.416-.41-.625-1.066-.625-1.965V42.708c0-4.7-2.095-7.05-6.292-7.05-3.712 0-7.458.892-11.238 2.692v37.633c0 .9-.191 1.554-.564 1.965-.382.42-1.053.62-2.017.62h-9.899c-.895 0-1.547-.2-1.955-.62-.417-.41-.617-1.066-.617-1.965V42.708c0-4.7-2.103-7.05-6.292-7.05-3.85 0-7.63.927-11.35 2.796v37.529c0 .9-.191 1.554-.565 1.965-.382.42-1.051.62-2.007.62h-9.909c-.886 0-1.547-.2-1.954-.62-.408-.41-.617-1.066-.617-1.965V28.19c0-.97.209-1.642.617-2.018.407-.384 1.068-.568 1.954-.568h7.431c1.583 0 2.539.76 2.886 2.28l.825 2.796zm-41.54-2.488c0-.97.209-1.642.617-2.018.418-.385 1.07-.576 1.965-.576h9.898c.965 0 1.634.191 2.008.576.382.376.574 1.049.574 2.018v47.784c0 .9-.192 1.563-.574 1.973-.374.411-1.043.621-2.008.621h-9.898c-.895 0-1.547-.21-1.965-.62-.408-.411-.617-1.075-.617-1.974V28.192zm7.527-10.78c-2.617 0-4.71-.725-6.292-2.175-1.582-1.458-2.364-3.424-2.364-5.915 0-2.489.782-4.455 2.364-5.904 1.581-1.45 3.675-2.176 6.292-2.176 2.615 0 4.71.726 6.292 2.176 1.582 1.45 2.372 3.415 2.372 5.904 0 2.49-.79 4.457-2.372 5.915-1.582 1.45-3.677 2.175-6.292 2.175zM77.017 33.478c2.746-3.04 5.345-5.197 7.787-6.482a16.574 16.574 0 017.787-1.913h1.443c.964 0 1.651.193 2.06.569.416.384.616 1.056.616 2.017v8.71c0 .9-.183 1.555-.565 1.974-.374.41-1.043.62-2.007.62-.486 0-1.104-.035-1.86-.105a32.438 32.438 0 00-2.885-.104c-1.583 0-3.503.227-5.78.672-2.268.455-4.19 1.022-5.77 1.712v34.829c0 .9-.191 1.555-.565 1.975-.382.41-1.051.62-2.017.62h-9.899c-.895 0-1.547-.21-1.955-.62-.417-.42-.626-1.076-.626-1.975V28.193c0-.97.21-1.642.626-2.026.408-.376 1.06-.568 1.955-.568h7.423c1.581 0 2.546.76 2.894 2.28l1.338 5.6zm-76-5.29c0-.96.209-1.632.626-2.017.409-.384 1.06-.568 1.956-.568h7.43c1.582 0 2.538.76 2.886 2.28l.72 2.69c2.06-2 4.555-3.59 7.475-4.769 2.92-1.17 5.9-1.756 8.926-1.756 6.665 0 11.94 2.455 15.825 7.356 3.884 4.91 5.832 11.54 5.832 19.909 0 5.73-.965 10.743-2.886 15.024-1.93 4.29-4.545 7.591-7.84 9.898-3.301 2.324-7.082 3.476-11.35 3.476-2.815 0-5.5-.445-8.038-1.345-2.547-.9-4.71-2.14-6.501-3.73v22.695c0 .97-.19 1.642-.565 2.027-.382.375-1.05.568-2.016.568H3.599c-.895 0-1.547-.193-1.956-.568-.417-.385-.626-1.057-.626-2.027V28.19zm25.169 7.26c-3.573 0-6.944.935-10.108 2.796v27.263c3.025 1.87 6.397 2.805 10.108 2.805 3.85 0 6.683-1.31 8.508-3.94 1.825-2.63 2.737-6.77 2.737-12.44 0-5.739-.895-9.915-2.685-12.544-1.79-2.629-4.641-3.94-8.56-3.94z"/><path fill="#232F3E" d="M240.128 186.756c-8.577 0-15.282-2.6-20.111-7.8-4.83-5.2-7.245-12.455-7.245-21.763 0-9.236 2.416-16.454 7.245-21.653 4.83-5.2 11.534-7.8 20.11-7.8 8.579 0 15.282 2.6 20.111 7.8 4.83 5.199 7.245 12.417 7.245 21.653 0 9.308-2.415 16.563-7.245 21.763-4.829 5.2-11.532 7.8-20.11 7.8zm0-12.219c7.568 0 11.353-5.781 11.353-17.344 0-11.49-3.785-17.236-11.353-17.236-7.569 0-11.353 5.745-11.353 17.236 0 11.563 3.784 17.344 11.353 17.344zm-59.63-12.366c-4.021 0-7.518-.388-10.478-1.172.42 4.778 1.854 8.204 4.29 10.269 2.434 2.063 6.117 3.1 11.058 3.1 1.97 0 3.898-.126 5.77-.378 1.865-.244 4.46-.802 7.777-1.65a3.9 3.9 0 01.634-.162c.213-.037.383-.055.525-.055 1.205 0 1.802.82 1.802 2.461v4.924c0 1.136-.161 1.938-.473 2.407-.321.459-.936.874-1.854 1.226-5.156 1.992-10.623 2.993-16.41 2.993-8.749 0-15.465-2.417-20.156-7.276-4.691-4.85-7.036-11.8-7.036-20.861 0-9.268 2.398-16.543 7.196-21.818 4.799-5.282 11.46-7.924 19.996-7.924 6.563 0 11.7 1.605 15.4 4.814 3.703 3.21 5.557 7.492 5.557 12.838 0 5.355-1.997 9.403-5.974 12.144-3.987 2.749-9.864 4.12-17.623 4.12zm1.48-23.107c-6.777 0-10.692 4.21-11.744 12.622 2.817.577 5.957.857 9.418.857 3.593 0 6.206-.551 7.829-1.659 1.624-1.1 2.436-2.796 2.436-5.076 0-4.499-2.65-6.744-7.938-6.744zm-68.286 47.255c-4.684 0-8.757-1.218-12.218-3.654-3.46-2.437-6.108-5.818-7.946-10.145-1.839-4.327-2.757-9.327-2.757-15 0-9.017 2.125-16.235 6.378-21.653 4.253-5.419 9.876-8.127 16.868-8.127 5.694 0 10.632 1.636 14.813 4.909v-25.526c0-1.019.216-1.728.648-2.128.433-.4 1.118-.6 2.054-.6h10.38c1.009 0 1.712.2 2.108.6.397.4.595 1.11.595 2.128v75.269c0 .946-.198 1.636-.595 2.073-.396.436-1.1.654-2.108.654h-8.65c-.865 0-1.532-.181-2-.545-.468-.364-.811-.982-1.027-1.855l-.65-2.51c-4.468 4.074-9.765 6.11-15.893 6.11zm5.19-12c3.46 0 6.776-1.018 9.948-3.054v-28.799c-3.1-1.818-6.669-2.726-10.705-2.726-3.82 0-6.667 1.436-8.541 4.308-1.874 2.873-2.812 7.218-2.812 13.035 0 5.82.991 10.146 2.974 12.983 1.983 2.835 5.027 4.254 9.136 4.254zm-51.572 10.8c-.938 0-1.623-.218-2.055-.654-.433-.437-.65-1.127-.65-2.073v-50.288c0-1.019.217-1.728.65-2.128.432-.4 1.117-.6 2.055-.6h10.38c1.008 0 1.712.2 2.108.6.396.4.594 1.11.594 2.128v50.288c0 .946-.198 1.636-.594 2.073-.396.436-1.1.654-2.108.654H67.31zm5.189-64.36c-2.739 0-4.938-.764-6.596-2.291-1.657-1.527-2.486-3.6-2.486-6.219 0-2.617.829-4.69 2.486-6.217 1.658-1.528 3.857-2.291 6.596-2.291 2.74 0 4.938.763 6.596 2.29 1.657 1.528 2.486 3.601 2.486 6.218 0 2.618-.829 4.692-2.486 6.219-1.658 1.527-3.857 2.29-6.596 2.29zm-48.082 64.36c-.721 0-1.316-.09-1.785-.272a2.827 2.827 0 01-1.188-.874c-.325-.4-.631-.963-.92-1.69L2.034 133.74a44.37 44.37 0 01-.54-1.528 3.861 3.861 0 01-.215-1.2c0-1.09.72-1.636 2.162-1.636h10.813c1.152 0 2 .218 2.54.654.54.437.955 1.164 1.244 2.182l11.136 38.617 11.353-38.617c.288-1.018.702-1.745 1.244-2.182.54-.436 1.387-.654 2.54-.654H54.8c1.442 0 2.162.546 2.162 1.637 0 .363-.07.763-.216 1.2-.144.436-.324.944-.54 1.527l-18.49 48.543c-.288.727-.594 1.29-.919 1.69-.3.382-.69.682-1.134.874-.433.181-1.045.272-1.839.272h-9.406z"/><path fill="#00AAE1" d="M1.974 212.264c.17-1.104 1.043-1.945 2.257-1.945.565 0 1.207.184 1.882.606 37.49 23.512 83.87 37.677 131.766 37.677 32.322 0 67.834-7.234 100.516-22.177 4.926-2.244 9.052 3.497 4.234 7.352-29.154 23.178-71.42 35.511-107.815 35.511-51.002 0-96.93-20.326-131.698-54.154-.683-.663-1.04-1.39-1.142-2.071v-.8z"/><path fill="#00AAE1" d="M218.58 215.918c8.621-6.51 20.083-8.681 29.586-8.681 8.89 0 16.07 1.903 17.598 3.938 3.212 4.245-.827 33.68-16.474 47.718-2.394 2.174-4.672 1.003-3.616-1.834 3.518-9.415 11.391-30.555 7.66-35.68-3.727-5.137-24.65-2.448-34.032-1.236-1.454.184-2.281-.41-2.402-1.297v-.478c.098-.768.643-1.665 1.68-2.45z"/></g></svg>